<?xml version="1.0" standalone="no"?>
<!DOCTYPE svg PUBLIC "-//W3C//DTD SVG 20010904//EN"
 "http://www.w3.org/TR/2001/REC-SVG-20010904/DTD/svg10.dtd">
<svg version="1.0" xmlns="http://www.w3.org/2000/svg"
 width="439.000000pt" height="439.000000pt" viewBox="0 0 439.000000 439.000000"
 preserveAspectRatio="xMidYMid meet">
<metadata>
Created by potrace 1.14, written by Peter Selinger 2001-2017
</metadata>
<g transform="translate(0.000000,439.000000) scale(0.100000,-0.100000)"
fill="#000000" stroke="none">
<path d="M547 4035 c-85 -18 -221 -91 -290 -154 -146 -136 -221 -296 -220
-472 2 -177 41 -255 269 -528 162 -194 171 -207 163 -236 -41 -149 -62 -409
-48 -587 39 -524 265 -974 653 -1307 418 -357 953 -491 1491 -371 163 36 396
137 550 239 355 235 638 625 754 1038 83 295 97 605 41 895 l-19 101 169 203
c231 276 271 356 273 533 1 233 -142 456 -365 569 -134 69 -274 88 -413 58
-113 -24 -247 -113 -336 -223 -28 -34 -53 -63 -56 -63 -2 0 -30 18 -62 39 -31
22 -107 64 -167 94 -355 178 -744 225 -1139 137 -147 -32 -402 -140 -518 -218
-23 -16 -47 -32 -54 -35 -7 -5 -34 20 -68 62 -60 72 -159 153 -235 192 -93 47
-250 61 -373 34z m265 -347 c37 -22 75 -61 137 -140 12 -16 7 -24 -40 -75 -84
-93 -202 -257 -254 -355 -39 -74 -50 -88 -60 -76 -60 61 -192 231 -207 266
-53 120 -2 277 116 356 69 46 107 56 192 52 55 -2 82 -9 116 -28z m1638 -3
c128 -29 231 -65 342 -120 289 -144 499 -357 646 -653 120 -243 172 -462 172
-723 0 -510 -245 -999 -635 -1268 -95 -66 -270 -153 -373 -185 -160 -50 -300
-69 -467 -63 -219 8 -377 48 -567 142 -204 101 -368 237 -503 417 -117 155
-234 407 -274 590 -76 343 -45 692 89 1003 200 467 574 771 1065 865 125 24
386 21 505 -5z m1325 4 c96 -27 190 -119 217 -213 16 -58 12 -139 -10 -188
-10 -24 -58 -90 -106 -148 -125 -150 -112 -142 -137 -85 -49 110 -149 256
-270 396 l-58 66 51 61 c51 62 96 97 146 112 40 12 121 12 167 -1z"/>
<path d="M1554 3167 c-151 -44 -246 -199 -216 -351 15 -73 67 -152 129 -193
155 -103 361 -45 445 125 33 67 33 187 0 254 -29 59 -86 117 -145 146 -55 27
-155 36 -213 19z"/>
<path d="M2664 3167 c-151 -44 -246 -199 -216 -351 15 -73 67 -152 129 -193
155 -103 361 -45 445 125 33 67 33 187 0 254 -29 59 -86 117 -145 146 -55 27
-155 36 -213 19z"/>
<path d="M2057 2354 c-352 -63 -592 -339 -550 -630 22 -153 137 -315 286 -403
259 -152 621 -144 874 20 172 112 273 299 260 479 -27 361 -437 612 -870 534z
m255 -125 c119 -25 247 -117 304 -218 73 -131 70 -305 -6 -416 -143 -206 -394
-272 -610 -159 -157 82 -250 211 -250 347 0 102 54 231 131 312 109 115 275
167 431 134z"/>
<path d="M1980 2068 c-139 -95 -125 -488 19 -548 41 -17 78 -6 117 35 82 87
98 309 31 443 -25 50 -76 92 -112 92 -12 0 -37 -10 -55 -22z"/>
<path d="M2330 2068 c-67 -45 -107 -174 -97 -308 8 -96 31 -162 71 -205 100
-106 215 -4 233 206 14 165 -62 329 -152 329 -12 0 -37 -10 -55 -22z"/>
</g>
</svg>
